<?xml version="1.0" standalone="no"?>
<!DOCTYPE svg PUBLIC "-//W3C//DTD SVG 20010904//EN"
 "http://www.w3.org/TR/2001/REC-SVG-20010904/DTD/svg10.dtd">
<svg version="1.0" xmlns="http://www.w3.org/2000/svg"
 width="736.000000pt" height="736.000000pt" viewBox="0 0 736.000000 736.000000"
 preserveAspectRatio="xMidYMid meet">

<g transform="translate(0.000000,736.000000) scale(0.100000,-0.100000)"
fill="#000000" stroke="none">
<path d="M2085 5399 c-6 -8 -29 -10 -84 -6 -86 6 -131 0 -131 -17 0 -7 12 -18
28 -25 15 -8 34 -17 43 -21 10 -5 21 -4 27 2 8 8 19 8 39 -2 20 -9 66 -12 155
-11 113 2 129 1 135 -14 8 -23 -6 -45 -45 -70 -17 -11 -35 -30 -41 -42 -6 -13
-17 -23 -24 -23 -8 0 -22 -9 -32 -20 -10 -11 -24 -20 -32 -20 -7 0 -13 -7 -13
-15 0 -8 -12 -22 -27 -32 -80 -49 -209 -219 -175 -231 6 -2 12 -10 12 -17 0
-20 77 -53 155 -66 39 -6 80 -16 92 -22 16 -7 26 -7 37 2 11 9 15 9 18 -1 3
-8 19 -11 45 -10 23 2 44 -2 48 -8 8 -13 65 36 65 56 0 7 -21 15 -50 19 -27 4
-52 11 -56 16 -3 5 -18 9 -33 9 -15 0 -31 3 -35 7 -4 4 -37 8 -72 9 -74 1
-108 20 -84 48 7 9 19 16 26 16 8 0 14 6 14 13 0 15 41 57 56 57 14 0 54 43
54 58 0 7 8 16 18 20 31 12 82 54 157 128 62 63 71 76 70 108 0 41 -27 73 -67
80 -15 2 -33 8 -40 12 -6 4 -55 8 -107 9 -53 1 -106 5 -117 9 -14 5 -25 3 -29
-5z"/>
<path d="M3745 4990 c-3 -5 -24 -10 -46 -10 -29 0 -39 -4 -39 -16 0 -12 -6
-15 -22 -11 -12 4 -27 2 -32 -2 -6 -5 -29 -11 -51 -14 -67 -9 -139 -27 -149
-37 -6 -6 -17 -10 -26 -10 -21 0 -70 -23 -70 -32 0 -5 -12 -8 -28 -8 -16 0
-32 -8 -40 -20 -7 -11 -21 -20 -31 -20 -28 0 -133 -61 -160 -94 -7 -9 -19 -16
-26 -16 -7 0 -15 -10 -19 -22 -4 -17 -8 -20 -14 -10 -7 9 -20 2 -53 -28 -24
-23 -60 -52 -80 -65 -20 -13 -72 -58 -115 -101 -43 -42 -92 -84 -109 -94 -16
-9 -32 -27 -35 -40 -3 -12 -20 -31 -39 -41 -18 -9 -42 -35 -53 -56 -11 -21
-28 -47 -38 -58 -9 -11 -20 -28 -23 -37 -4 -10 -13 -18 -22 -18 -9 0 -15 -9
-15 -25 0 -18 -5 -25 -20 -25 -13 0 -20 -7 -20 -20 0 -11 -7 -23 -15 -26 -8
-4 -15 -15 -15 -25 0 -10 -4 -19 -8 -19 -10 0 -52 -90 -52 -113 0 -8 -8 -18
-17 -21 -11 -3 -19 -17 -19 -32 -1 -14 -12 -32 -23 -41 -12 -8 -19 -18 -16
-23 3 -4 -5 -34 -17 -65 -17 -46 -19 -61 -10 -76 10 -16 9 -21 -5 -26 -10 -3
-29 -17 -42 -30 -14 -14 -31 -21 -41 -18 -10 3 -23 -1 -30 -10 -7 -8 -19 -15
-26 -15 -8 0 -14 -7 -14 -15 0 -9 -7 -18 -15 -21 -23 -9 -85 -69 -85 -82 0 -7
-6 -12 -13 -12 -16 0 -77 -61 -77 -77 0 -6 -11 -20 -25 -31 -13 -11 -43 -43
-65 -71 -34 -43 -39 -55 -29 -67 10 -12 9 -16 -9 -21 -22 -5 -27 -18 -23 -60
1 -12 -3 -24 -9 -28 -5 -3 -10 -18 -10 -32 0 -25 -52 -82 -76 -83 -6 0 -19 -9
-29 -20 -10 -11 -22 -20 -27 -20 -5 0 -22 -16 -39 -35 -17 -19 -39 -37 -50
-40 -10 -4 -19 -12 -19 -19 0 -14 -37 -49 -63 -59 -9 -3 -17 -12 -17 -19 -1
-19 -45 -65 -66 -70 -11 -2 -18 -11 -16 -21 2 -9 -3 -17 -11 -17 -15 0 -57
-44 -57 -60 0 -5 -11 -12 -25 -16 -14 -3 -25 -11 -25 -18 0 -14 -69 -81 -84
-81 -6 0 -15 -20 -20 -43 -9 -41 -7 -45 20 -68 16 -13 43 -30 59 -38 33 -14
124 -13 153 3 19 10 58 5 77 -10 6 -4 17 -4 25 1 8 6 31 10 51 10 19 0 40 5
47 12 8 8 15 9 22 2 6 -6 32 -9 59 -6 41 4 52 1 75 -21 15 -14 44 -27 69 -31
24 -4 57 -15 75 -26 18 -11 42 -20 55 -20 12 0 33 -9 47 -20 14 -11 31 -20 39
-20 14 0 68 -16 106 -31 35 -13 150 -31 219 -32 48 -2 66 -6 66 -16 0 -10 3
-11 14 -2 10 9 20 9 40 0 20 -9 29 -9 41 1 11 9 18 10 28 1 8 -6 31 -12 53
-13 21 -2 42 -7 45 -11 3 -4 18 -3 33 2 19 8 32 7 46 -1 15 -10 22 -10 31 -1
9 9 16 9 30 0 14 -9 21 -9 30 0 9 9 16 9 30 0 13 -8 24 -8 44 1 20 9 30 9 45
0 15 -10 22 -10 32 0 6 6 36 12 64 12 29 0 55 4 59 10 3 5 29 -9 58 -30 29
-22 58 -40 65 -40 6 0 12 -6 12 -14 0 -17 22 -36 50 -41 12 -2 27 -9 34 -14
18 -15 83 -24 90 -12 4 6 16 11 27 11 21 0 79 38 79 52 0 4 18 27 40 50 22 24
40 48 40 53 0 6 5 22 12 37 12 25 12 25 66 11 40 -11 57 -11 67 -3 8 7 18 9
23 6 20 -12 181 -9 196 4 13 10 19 10 31 0 11 -9 18 -10 29 -1 8 6 18 11 22 9
22 -5 160 27 167 39 5 9 16 11 29 7 11 -3 24 -1 27 5 4 6 25 13 47 16 35 4
113 20 139 29 16 5 48 17 72 27 13 4 36 6 51 3 19 -4 32 -1 41 10 8 10 29 16
52 16 21 0 41 5 44 10 3 6 17 10 30 10 13 0 27 5 30 10 3 6 25 10 47 10 29 0
49 7 65 22 17 16 26 19 35 10 8 -8 15 -5 29 11 16 20 18 21 24 4 4 -9 2 -24
-5 -32 -10 -12 -10 -18 0 -30 10 -12 10 -19 2 -27 -17 -17 -15 -54 7 -99 11
-22 18 -46 15 -53 -9 -23 115 -134 197 -176 114 -59 263 -84 322 -55 15 8 49
17 75 21 26 4 64 15 84 25 21 11 44 19 53 19 8 0 20 9 27 20 7 11 18 20 24 20
18 0 53 21 116 68 31 23 61 42 65 42 5 0 16 8 25 18 10 9 38 33 63 52 57 44
145 128 165 158 8 12 20 22 27 22 7 0 13 4 13 9 0 5 18 32 40 60 22 28 40 53
40 57 0 3 8 18 18 32 10 15 27 54 37 87 11 33 23 64 27 69 4 6 8 22 8 37 0 15
7 32 16 40 8 7 13 21 11 31 -3 10 -1 21 4 24 12 7 11 76 -1 109 -7 18 -6 31 3
45 9 16 9 24 -1 40 -6 11 -12 26 -12 34 0 7 -9 25 -20 39 -11 14 -20 35 -20
46 0 12 -6 21 -15 21 -8 0 -15 8 -15 18 0 26 -26 75 -51 98 -12 10 -25 29 -30
42 -5 12 -20 27 -34 32 -14 5 -25 16 -25 25 0 16 -108 125 -123 125 -6 0 -31
18 -56 40 -77 68 -81 70 -92 70 -6 0 -25 14 -42 31 -17 18 -45 38 -62 46 -70
33 -96 50 -111 71 -8 12 -21 22 -28 22 -28 0 -73 65 -85 125 -7 33 -17 68 -22
77 -5 10 -9 26 -9 37 0 10 -7 24 -15 31 -9 7 -15 20 -13 29 3 23 -12 63 -32
86 -10 11 -28 38 -39 61 -12 22 -33 51 -46 64 -14 13 -25 28 -25 33 0 12 -101
117 -112 117 -14 0 -68 59 -68 74 0 16 -27 30 -52 27 -22 -3 -34 19 -17 30 9
6 10 12 4 17 -72 51 -105 72 -114 72 -5 0 -14 6 -18 14 -4 7 -23 26 -41 41
-25 21 -36 25 -45 16 -15 -15 -27 -14 -27 2 0 6 -7 21 -16 32 -12 16 -16 17
-23 6 -7 -11 -13 -9 -30 8 -11 11 -32 23 -46 27 -14 3 -28 10 -31 15 -3 5 -14
9 -26 9 -17 0 -36 12 -96 61 -7 6 -21 7 -32 4 -11 -4 -20 -2 -20 4 0 12 -38
26 -62 22 -9 -1 -26 7 -37 18 -12 12 -30 21 -40 21 -11 0 -21 6 -24 13 -3 9
-8 9 -21 -2 -14 -12 -21 -12 -41 -1 -14 7 -35 10 -50 6 -19 -5 -33 -2 -46 10
-16 14 -23 15 -45 5 -17 -7 -30 -8 -38 -2 -16 13 -323 14 -331 1z m261 -131
c21 9 30 9 41 -1 9 -7 28 -11 43 -10 16 2 31 -1 35 -7 3 -6 16 -11 29 -11 12
0 27 -5 33 -11 8 -8 17 -8 31 0 15 8 23 7 32 -4 7 -8 22 -15 34 -15 12 0 27
-5 33 -11 6 -6 23 -9 39 -7 21 2 34 -4 47 -19 12 -16 29 -23 51 -23 18 0 53
-11 77 -25 24 -14 65 -35 92 -46 26 -12 47 -26 47 -30 0 -5 7 -9 15 -9 8 0 23
-4 33 -9 9 -5 33 -16 53 -25 19 -8 43 -24 54 -36 11 -13 25 -18 37 -14 13 4
18 0 18 -13 0 -11 15 -30 33 -43 17 -13 36 -29 40 -37 4 -7 13 -13 19 -13 17
0 121 -100 154 -149 17 -25 54 -91 83 -146 29 -55 58 -107 65 -115 7 -8 21
-33 31 -55 9 -22 23 -47 29 -55 7 -8 18 -33 24 -55 6 -22 19 -67 28 -100 9
-33 21 -64 26 -69 4 -6 8 -20 8 -32 0 -13 5 -26 10 -29 6 -3 10 -21 10 -40 0
-19 5 -37 10 -40 6 -3 10 -37 10 -75 0 -39 5 -72 11 -76 8 -4 8 -9 0 -17 -7
-7 -11 -53 -11 -113 0 -62 -4 -105 -11 -109 -6 -4 -8 -13 -6 -19 3 -7 -1 -26
-8 -42 -7 -16 -18 -48 -25 -70 -16 -55 -166 -244 -192 -244 -5 0 -39 -27 -76
-59 -74 -66 -113 -94 -185 -131 -26 -14 -54 -35 -63 -47 -8 -13 -23 -23 -34
-23 -25 0 -100 -29 -121 -47 -8 -7 -25 -13 -37 -13 -11 0 -24 -4 -27 -10 -3
-5 -17 -10 -30 -10 -13 0 -26 -4 -29 -9 -3 -5 -20 -11 -38 -14 -56 -9 -132
-29 -143 -37 -5 -4 -30 -11 -55 -15 -42 -6 -115 -26 -168 -46 -13 -5 -38 -9
-57 -9 -19 0 -37 -4 -40 -10 -3 -5 -24 -10 -45 -10 -21 0 -42 -4 -45 -10 -3
-5 -19 -10 -35 -10 -16 0 -32 -4 -35 -10 -3 -5 -28 -10 -55 -10 -27 0 -52 -4
-55 -10 -3 -5 -22 -10 -42 -10 -20 0 -44 -7 -54 -16 -14 -13 -22 -13 -39 -4
-14 8 -49 10 -97 7 -88 -7 -97 3 -65 64 12 22 19 45 16 53 -3 7 1 31 9 53 9
25 11 48 5 63 -5 14 -4 28 3 36 6 7 7 19 3 26 -12 18 -12 71 -1 86 7 8 6 17
-1 24 -7 7 -12 22 -12 34 0 13 -8 24 -19 27 -12 3 -22 19 -28 43 -6 29 -14 39
-28 39 -11 0 -26 4 -33 8 -27 18 -39 0 -41 -59 0 -31 4 -62 9 -69 12 -14 19
-186 8 -179 -4 3 -5 -2 -2 -11 4 -8 2 -21 -4 -28 -5 -6 -12 -38 -16 -70 -3
-33 -13 -65 -21 -74 -8 -8 -15 -24 -15 -35 0 -26 -55 -141 -75 -158 -8 -7 -15
-17 -15 -23 0 -21 -52 -59 -75 -53 -21 5 -32 14 -131 101 -28 25 -56 45 -61
45 -5 0 -20 8 -31 18 -12 9 -38 28 -58 42 -21 14 -51 40 -69 58 -17 17 -38 32
-45 32 -8 0 -25 11 -39 24 -24 21 -92 41 -104 30 -6 -7 16 -54 26 -54 4 0 7
-6 7 -14 0 -7 10 -20 23 -29 45 -30 127 -106 127 -118 0 -7 -85 -16 -227 -23
-40 -2 -73 1 -73 5 0 5 -42 9 -94 9 -52 0 -97 4 -100 9 -3 4 -23 5 -45 1 -21
-4 -45 -3 -53 1 -8 4 -47 9 -87 11 -40 1 -75 6 -77 10 -3 4 -23 8 -44 8 -21 0
-42 5 -45 10 -3 6 -17 10 -30 10 -13 0 -26 4 -30 9 -3 5 -30 13 -60 16 -33 5
-60 14 -71 26 -10 11 -30 19 -50 19 -46 0 -51 16 -13 39 23 14 37 17 45 10 15
-12 64 16 64 36 0 19 -28 38 -45 32 -8 -4 -17 -2 -20 3 -9 15 -142 13 -148 -2
-4 -10 -7 -10 -14 -1 -6 8 -14 9 -23 3 -8 -6 -36 -10 -61 -10 -25 0 -49 -3
-53 -8 -4 -4 -49 -8 -99 -10 -51 -1 -125 -5 -164 -8 -64 -4 -73 -3 -73 12 0 9
10 27 22 39 13 13 39 39 58 59 19 20 38 36 42 36 4 0 8 5 8 11 0 7 10 22 22
34 13 12 83 82 156 156 155 157 191 189 213 189 9 0 24 9 34 20 10 11 24 20
31 20 8 0 19 9 26 20 7 11 21 20 30 20 24 0 23 22 -2 38 -32 19 -24 61 21 117
9 11 19 33 23 48 4 15 14 31 24 34 23 9 62 45 62 59 0 6 9 19 20 29 11 10 20
25 20 33 0 8 6 12 15 8 8 -3 15 0 15 6 0 13 61 78 74 78 5 0 27 15 50 33 59
47 150 87 294 128 23 7 47 18 54 26 6 7 19 11 29 8 11 -4 31 0 47 7 15 8 45
15 67 16 21 2 45 8 52 14 9 7 17 7 27 -1 11 -9 19 -9 35 1 15 9 26 10 39 2 11
-6 32 -7 57 -2 22 5 49 9 60 9 11 -1 34 -1 52 -1 17 0 34 -4 38 -10 3 -5 21
-10 40 -10 19 0 37 -4 40 -10 3 -5 16 -10 29 -10 13 0 31 -9 41 -20 10 -11 22
-20 26 -20 4 0 37 -20 72 -45 36 -25 72 -45 81 -45 9 0 16 -6 16 -14 0 -18 68
-42 81 -29 10 10 -10 63 -23 63 -5 0 -8 5 -8 11 0 13 -46 59 -59 59 -4 0 -20
13 -36 30 -16 17 -37 30 -46 30 -10 0 -21 5 -24 10 -3 6 -16 10 -29 10 -13 0
-31 9 -41 20 -13 14 -31 20 -63 20 -28 0 -52 6 -63 16 -10 9 -35 18 -56 20
-76 9 -249 6 -293 -5 -25 -6 -67 -14 -94 -16 -27 -3 -57 -12 -67 -21 -10 -9
-22 -13 -28 -10 -5 4 -13 1 -16 -4 -4 -7 -19 -9 -35 -5 -18 4 -44 -1 -74 -16
-46 -21 -71 -20 -48 3 7 7 12 21 12 33 0 11 11 37 25 57 14 21 22 44 19 53 -4
10 -2 15 6 13 7 -2 16 6 19 17 11 36 51 105 61 105 6 0 10 10 10 23 0 14 22
44 60 82 43 42 58 65 54 77 -4 13 2 21 19 27 13 5 29 22 36 38 6 15 27 39 46
53 18 14 36 33 38 42 3 10 16 22 30 27 14 6 31 19 37 31 6 12 22 25 36 30 13
5 24 16 24 25 0 8 5 15 12 15 6 0 35 21 64 48 29 26 72 62 96 80 24 18 57 44
74 57 18 14 35 25 39 25 5 0 23 11 41 25 18 14 37 25 42 25 13 0 50 20 89 48
17 12 36 22 43 22 7 0 25 9 41 21 16 11 33 17 39 14 5 -3 20 1 32 9 12 9 37
16 55 16 17 0 35 5 38 10 3 6 33 10 65 10 32 0 62 5 65 11 4 6 21 10 39 9 17
-1 33 -1 36 -1 3 1 47 3 97 4 51 2 96 6 99 10 4 4 13 2 21 -5 10 -8 20 -8 39
1z m1659 -1254 c46 -36 89 -65 93 -65 5 0 30 -22 56 -50 26 -27 54 -50 61 -50
8 0 22 -11 31 -25 9 -14 24 -25 34 -25 12 0 22 -12 29 -33 7 -19 25 -47 41
-62 17 -16 30 -39 30 -52 0 -13 5 -23 10 -23 14 0 70 -89 70 -111 0 -9 7 -22
15 -29 8 -7 15 -23 15 -36 0 -12 5 -26 10 -29 13 -8 13 -178 0 -191 -5 -5 -10
-37 -12 -72 -1 -38 -7 -62 -14 -62 -13 0 -34 -43 -34 -70 0 -11 -13 -34 -28
-52 -16 -18 -36 -49 -44 -68 -16 -33 -203 -229 -230 -240 -11 -4 -36 -19 -113
-67 -11 -7 -35 -20 -53 -29 -18 -9 -37 -24 -42 -34 -5 -9 -35 -29 -67 -44 -32
-15 -66 -31 -75 -37 -10 -5 -25 -9 -33 -9 -8 0 -15 -4 -15 -10 0 -5 -11 -10
-24 -10 -14 0 -28 -5 -31 -10 -3 -5 -28 -10 -54 -10 -26 0 -52 -5 -59 -12 -9
-9 -21 -7 -51 10 -21 12 -44 22 -51 22 -7 0 -28 14 -47 30 -18 17 -38 30 -43
30 -6 0 -10 9 -10 20 0 11 -9 25 -20 32 -11 7 -20 20 -20 28 0 9 -5 21 -11 27
-6 6 -11 32 -12 59 -1 27 -6 55 -11 62 -5 8 -4 18 3 25 6 6 11 27 11 47 0 45
19 88 43 96 9 3 17 9 17 13 0 4 20 16 45 27 25 10 45 24 45 31 0 7 6 13 13 13
8 0 22 9 32 20 10 11 24 20 31 20 7 0 17 6 21 14 4 7 29 28 55 45 26 17 50 41
53 51 4 11 12 20 19 20 22 0 186 194 186 219 0 6 9 26 20 46 11 20 20 46 20
60 0 13 5 27 10 30 6 3 10 21 10 39 0 17 5 37 11 43 15 15 14 310 -2 329 -6 8
-9 27 -5 46 4 21 0 44 -9 62 -14 27 -20 66 -10 66 2 0 43 -29 90 -65z m-4510
-1255 c3 -5 1 -10 -4 -10 -6 0 -11 5 -11 10 0 6 2 10 4 10 3 0 8 -4 11 -10z
m565 -34 c0 -3 -4 -8 -10 -11 -5 -3 -10 -1 -10 4 0 6 5 11 10 11 6 0 10 -2 10
-4z"/>
<path d="M1347 4503 c-23 -23 29 -83 71 -83 13 0 31 -4 40 -9 10 -5 54 -11
100 -13 55 -2 83 -7 87 -16 3 -9 10 -10 24 -3 10 6 21 7 25 4 9 -9 -75 -86
-94 -87 -17 -1 -211 -128 -227 -148 -16 -21 -22 -58 -13 -83 8 -22 60 -55 85
-55 6 0 31 -10 55 -21 25 -12 57 -22 71 -23 15 -1 31 -5 35 -9 4 -4 18 -7 30
-7 13 0 26 -4 29 -10 10 -17 65 -11 91 9 l24 19 -26 21 c-15 12 -35 21 -45 21
-10 0 -21 5 -24 10 -3 6 -18 10 -33 10 -15 1 -38 7 -52 15 -14 8 -41 14 -61
15 -20 0 -38 3 -41 6 -8 8 3 45 12 39 4 -2 15 4 25 15 10 11 24 20 30 20 7 0
18 7 25 15 7 9 33 25 56 35 24 11 46 24 49 30 3 5 15 10 25 10 10 0 37 18 60
40 23 22 45 40 49 40 12 0 41 58 36 72 -3 7 -29 24 -58 36 -29 13 -61 28 -73
34 -21 10 -75 16 -206 24 -43 2 -97 11 -120 19 -49 17 -52 17 -61 8z"/>
<path d="M1315 3620 c-13 -24 -20 -29 -45 -26 -37 4 -70 -35 -49 -60 13 -16
85 -19 94 -4 9 14 45 12 45 -2 0 -7 -11 -35 -25 -62 -14 -27 -25 -62 -25 -77
0 -15 -4 -31 -10 -34 -5 -3 -10 -17 -10 -30 0 -13 -4 -26 -8 -29 -4 -2 -8 -26
-7 -53 0 -45 2 -49 35 -64 54 -26 107 -31 143 -15 18 8 42 17 55 21 21 6 72
69 72 88 0 5 -7 6 -16 3 -9 -3 -33 4 -55 16 -36 20 -40 20 -57 5 -10 -9 -22
-17 -25 -17 -13 0 -7 45 8 64 8 11 15 32 15 47 0 15 5 31 10 34 6 3 10 22 10
42 0 20 7 44 15 53 12 13 13 26 7 56 -9 46 -52 73 -119 74 -37 0 -44 -4 -58
-30z"/>
</g>
</svg>
